<svg width="55" height="38" viewBox="0 0 55 38" fill="none" xmlns="http://www.w3.org/2000/svg">
<path d="M47.7903 29.6193C46.2043 29.954 44.2598 29.9623 42.4994 29.6419L41.9169 29.5358L42.8177 28.0224C44.45 25.2799 45.4835 23.2124 46.5749 20.5065C47.6536 17.8315 48.3728 15.4467 48.8813 12.8584C49.1614 11.4325 49.4995 9.10886 49.4222 9.1407C49.4039 9.14823 49.2731 9.66309 49.1315 10.2848C47.6359 16.8503 44.4046 23.6403 40.7472 27.903C40.3393 28.3784 39.9781 28.7477 39.9447 28.7236C39.5855 28.4648 38.2681 26.7934 37.6102 25.7615C36.9374 24.7062 36.1551 22.8796 35.9612 21.9111C35.5886 20.0507 35.7776 18.5386 36.5933 16.8518C37.578 14.8159 39.1739 12.9917 42.056 10.6082C45.4387 7.81059 46.4592 6.80488 47.5333 5.21038C48.2948 4.07991 48.9273 2.53473 49.1576 1.24273C49.2278 0.848538 49.304 0.517066 49.3268 0.506086C49.3985 0.47175 50.2258 1.73351 50.7149 2.62291C51.4398 3.94119 52.0515 5.30629 52.5574 6.73473C55.5038 15.0541 55.4085 22.9706 52.3159 26.8193C51.7642 27.5058 51.1043 28.1099 50.4647 28.5141C49.801 28.9334 48.5082 29.4677 47.7909 29.6191L47.7903 29.6193ZM30.6647 36.5504C27.6195 37.497 24.7563 37.4997 21.9751 36.5583C18.9744 35.5429 15.8244 33.0822 13.8014 30.173C12.9026 28.8805 12.3527 27.8489 11.0293 24.9724C10.3433 23.4815 9.63785 22.039 9.40016 21.6412C7.52839 18.509 5.17512 16.9892 0.900479 16.1525L0.261697 16.0274L0.6078 15.7388C1.1378 15.297 2.31819 14.5077 3.07417 14.0896C4.22141 13.4552 7.16377 12.3474 8.71497 11.966C14.3802 10.5727 20.8118 10.5332 26.3784 11.8576C29.5283 12.607 32.5747 13.9125 34.6226 15.3903L35.1338 15.7593L34.6419 16.9415C34.1045 18.2329 33.9379 18.8925 33.8928 19.9073C33.7942 22.1265 34.786 24.5391 36.7336 26.8173C37.0257 27.159 37.259 27.4522 37.2521 27.4688C37.2451 27.4855 37.0566 27.3479 36.8331 27.163C32.3417 23.448 27.6414 20.8994 22.6064 19.4492C21.3222 19.0794 18.5693 18.4761 18.4292 18.5338C18.4105 18.5415 19.0796 18.8361 19.9161 19.1884C23.963 20.8928 27.3717 22.7911 30.4256 25.0405C31.5292 25.8534 33.4733 27.5471 34.3391 28.4497C35.5632 29.7258 36.8051 31.3726 37.2026 32.2465L37.4008 32.6824L36.8631 33.1303C35.2215 34.4983 32.5841 35.9533 30.6651 36.5499L30.6647 36.5504ZM37.4021 27.665C37.3604 27.635 37.335 27.5897 37.3455 27.5643C37.356 27.5389 37.4028 27.5582 37.4493 27.6072C37.546 27.709 37.5153 27.7465 37.4021 27.665Z" fill="#F88500"/>
</svg>
