<svg width="16" height="19" viewBox="0 0 16 19" fill="none" xmlns="http://www.w3.org/2000/svg">
<g clip-path="url(#clip0_80_164)">
<path d="M8.00356 5.4375C5.73214 5.4375 3.89999 7.24973 3.89999 9.49647C3.89999 11.7432 5.73214 13.5554 8.00356 13.5554C10.275 13.5554 12.1071 11.7432 12.1071 9.49647C12.1071 7.24973 10.275 5.4375 8.00356 5.4375ZM8.00356 12.1353C6.53571 12.1353 5.33571 10.9519 5.33571 9.49647C5.33571 8.04103 6.53214 6.85761 8.00356 6.85761C9.47499 6.85761 10.6714 8.04103 10.6714 9.49647C10.6714 10.9519 9.47142 12.1353 8.00356 12.1353ZM13.2321 5.27147C13.2321 5.79782 12.8036 6.2182 12.275 6.2182C11.7429 6.2182 11.3179 5.79429 11.3179 5.27147C11.3179 4.74864 11.7464 4.32473 12.275 4.32473C12.8036 4.32473 13.2321 4.74864 13.2321 5.27147ZM15.95 6.23234C15.8893 4.96413 15.5964 3.84076 14.6571 2.91522C13.7214 1.98967 12.5857 1.7 11.3036 1.63641C9.98214 1.56223 6.02142 1.56223 4.69999 1.63641C3.42142 1.69647 2.28571 1.98614 1.34642 2.91168C0.407136 3.83723 0.11785 4.9606 0.0535644 6.2288C-0.0214355 7.53587 -0.0214355 11.4535 0.0535644 12.7606C0.114279 14.0288 0.407136 15.1522 1.34642 16.0777C2.28571 17.0033 3.41785 17.2929 4.69999 17.3565C6.02142 17.4307 9.98214 17.4307 11.3036 17.3565C12.5857 17.2965 13.7214 17.0068 14.6571 16.0777C15.5928 15.1522 15.8857 14.0288 15.95 12.7606C16.025 11.4535 16.025 7.5394 15.95 6.23234ZM14.2428 14.163C13.9643 14.8554 13.425 15.3889 12.7214 15.6679C11.6679 16.0812 9.16785 15.9859 8.00356 15.9859C6.83928 15.9859 4.33571 16.0777 3.28571 15.6679C2.58571 15.3924 2.04642 14.859 1.76428 14.163C1.34642 13.1209 1.44285 10.6481 1.44285 9.49647C1.44285 8.34483 1.34999 5.86848 1.76428 4.82989C2.04285 4.1375 2.58214 3.60407 3.28571 3.325C4.33928 2.91168 6.83928 3.00706 8.00356 3.00706C9.16785 3.00706 11.6714 2.91522 12.7214 3.325C13.4214 3.60054 13.9607 4.13397 14.2428 4.82989C14.6607 5.87201 14.5643 8.34483 14.5643 9.49647C14.5643 10.6481 14.6607 13.1245 14.2428 14.163Z" fill="white" fill-opacity="0.75"/>
</g>
<defs>
<clipPath id="clip0_80_164">
<rect width="16" height="18.087" fill="white" transform="translate(0 0.45652)"/>
</clipPath>
</defs>
</svg>
