<svg width="12" height="16" viewBox="0 0 12 16" fill="none" xmlns="http://www.w3.org/2000/svg">
<path d="M6 2.13333C4.9792 2.13446 4.00054 2.53737 3.27873 3.25367C2.55692 3.96996 2.15091 4.94114 2.14977 5.95413C2.14977 6.13227 2.23576 7.15413 3.93945 9.72693C4.60491 10.7182 5.31024 11.6825 6.05374 12.6176C6.5052 12.0384 7.01039 11.3621 7.50591 10.6443C9.78467 7.34613 9.84916 6.0864 9.84916 5.95413C9.84802 4.94151 9.4423 3.97065 8.72095 3.25442C7.99961 2.53819 7.0215 2.13503 6.00108 2.13333H6ZM6 0C9.31387 0 12 2.66667 12 5.95413C12 9.20533 6.10104 16 6.00108 16L6 15.9979C6.03225 15.8432 0 9.24267 0 5.95413C0 2.6656 2.68721 0 6 0Z" fill="#F88500"/>
</svg>
