<svg width="16" height="14" viewBox="0 0 16 14" fill="none" xmlns="http://www.w3.org/2000/svg">
<path d="M14.3554 3.6951C14.3655 3.83722 14.3655 3.97938 14.3655 4.1215C14.3655 8.45652 11.066 13.4515 5.03555 13.4515C3.17767 13.4515 1.45179 12.9134 0 11.9794C0.26397 12.0098 0.517752 12.02 0.791878 12.02C2.32485 12.02 3.73605 11.5023 4.86296 10.619C3.42133 10.5885 2.2132 9.64437 1.79694 8.34486C2.00001 8.3753 2.20304 8.39561 2.41626 8.39561C2.71067 8.39561 3.00511 8.35499 3.2792 8.28396C1.77666 7.97936 0.649721 6.65958 0.649721 5.06566V5.02507C1.08625 5.26873 1.59391 5.42101 2.13195 5.44129C1.24869 4.85244 0.670034 3.84738 0.670034 2.71031C0.670034 2.10118 0.832441 1.54281 1.11672 1.05549C2.73095 3.04534 5.15736 4.34482 7.87816 4.48697C7.82741 4.24332 7.79694 3.98953 7.79694 3.73572C7.79694 1.92859 9.25888 0.45652 11.0761 0.45652C12.0203 0.45652 12.8731 0.852459 13.4721 1.49206C14.2132 1.34993 14.9238 1.0758 15.5533 0.700177C15.3096 1.46162 14.7919 2.10121 14.1117 2.50728C14.7716 2.43625 15.4112 2.25346 16 1.99968C15.5534 2.6494 14.995 3.22806 14.3554 3.6951Z" fill="white" fill-opacity="0.75"/>
</svg>
