<svg width="19" height="12" viewBox="0 0 19 12" fill="none" xmlns="http://www.w3.org/2000/svg">
<path d="M18.567 0.748351C18.6975 0.317273 18.567 0 17.9391 0H15.8616C15.3326 0 15.0892 0.272441 14.9587 0.57592C14.9587 0.57592 13.9005 3.09686 12.405 4.73151C11.9218 5.20397 11.6996 5.35571 11.4351 5.35571C11.3046 5.35571 11.1035 5.20397 11.1035 4.77289V0.748351C11.1035 0.231058 10.9554 0 10.518 0H7.25184C6.92029 0 6.72277 0.241404 6.72277 0.465564C6.72277 0.955268 7.47053 1.06907 7.54813 2.44852V5.44193C7.54813 6.09716 7.4282 6.21786 7.16366 6.21786C6.45823 6.21786 4.74403 3.68658 3.72821 0.789734C3.52363 0.227609 3.32259 0 2.78998 0H0.712487C0.119923 0 0 0.272441 0 0.57592C0 1.1139 0.705432 3.78659 3.28379 7.31798C5.00151 9.72856 7.42115 11.0356 9.6221 11.0356C10.9448 11.0356 11.107 10.7459 11.107 10.2459C11.107 7.94218 10.9871 7.72491 11.6502 7.72491C11.9571 7.72491 12.4862 7.87665 13.7207 9.03884C15.1315 10.4183 15.3643 11.0356 16.1544 11.0356H18.2319C18.8245 11.0356 19.1243 10.7459 18.9514 10.1734C18.5564 8.96986 15.8863 6.49375 15.7664 6.32822C15.4595 5.94198 15.5477 5.76954 15.7664 5.42468C15.7699 5.42123 18.306 1.93123 18.567 0.748351Z" fill="white" fill-opacity="0.75"/>
</svg>
