<svg width="40" height="40" viewBox="0 0 40 40" fill="none" xmlns="http://www.w3.org/2000/svg">
<g clip-path="url(#clip0_13_123)">
<path d="M20 0.00012207C16.1238 0.00012207 12.3639 1.11067 9.12641 3.21161C8.77273 3.44114 8.67219 3.91379 8.90164 4.26747C9.13117 4.62114 9.60383 4.72161 9.9575 4.49223C12.9469 2.55231 16.4195 1.52684 20 1.52684C30.1862 1.52684 38.4733 9.81395 38.4733 20.0001C38.4733 30.1863 30.1862 38.4734 20 38.4734C9.81383 38.4734 1.52672 30.1863 1.52672 20.0001C1.52672 14.8058 3.73273 9.82168 7.57906 6.32583C7.89102 6.04223 7.91398 5.5595 7.63047 5.24747C7.34687 4.93543 6.86414 4.91239 6.55211 5.19606C2.3882 8.98067 0 14.3765 0 20.0001C0 31.0282 8.97187 40.0001 20 40.0001C31.0281 40.0001 40 31.0282 40 20.0001C40 8.972 31.0281 0.00012207 20 0.00012207Z" fill="#F88500"/>
<path d="M33.5871 10.9282C33.3528 10.5779 32.8786 10.4836 32.5283 10.7182C32.1778 10.9525 32.0838 11.4267 32.3183 11.777C33.9478 14.213 34.8091 17.0564 34.8091 20.0002C34.8091 28.1659 28.1658 34.8093 20 34.8093C11.8342 34.8093 5.19084 28.1659 5.19084 20.0002C5.19084 11.8344 11.8342 5.19103 20 5.19103C23.8954 5.19103 27.5737 6.69118 30.3572 9.41517C30.6586 9.71017 31.1419 9.70485 31.4366 9.40353C31.7316 9.10228 31.7263 8.61892 31.425 8.32407C28.3544 5.31915 24.297 3.66431 20 3.66431C10.9923 3.66431 3.66412 10.9925 3.66412 20.0002C3.66412 29.0078 10.9923 36.336 20 36.336C29.0076 36.336 36.3358 29.0078 36.3358 20.0002C36.3358 16.7532 35.3853 13.616 33.5871 10.9282Z" fill="#F88500"/>
<path d="M20 8.34619C17.4844 8.34619 15.089 9.1351 13.0727 10.6278C12.7337 10.8786 12.6625 11.3566 12.9133 11.6954C13.1643 12.0346 13.6423 12.1057 13.9809 11.8548C15.7325 10.5582 17.8138 9.87291 20 9.87291C25.5841 9.87291 30.1272 14.416 30.1272 20.0001C30.1272 24.6577 26.9759 28.6981 22.4639 29.8256C22.0548 29.9278 21.8062 30.3422 21.9084 30.7513C21.9951 31.0982 22.3064 31.3298 22.6484 31.3298C22.7097 31.3298 22.772 31.3224 22.8342 31.3069C28.0271 30.0091 31.6539 25.3596 31.6539 20.0001C31.6539 13.574 26.426 8.34619 20 8.34619Z" fill="#F88500"/>
<path d="M13.5937 27.844C11.229 25.9102 9.87279 23.0513 9.87279 20.0001C9.87279 17.8886 10.5158 15.8656 11.7326 14.1497C11.9765 13.8058 11.8953 13.3293 11.5514 13.0855C11.2076 12.8415 10.731 12.9227 10.4872 13.2666C9.08638 15.242 8.34607 17.5705 8.34607 20.0001C8.34607 23.5111 9.90646 26.8009 12.6273 29.0259C12.7691 29.1418 12.9402 29.1983 13.1101 29.1983C13.3312 29.1983 13.5505 29.1027 13.7015 28.9182C13.9683 28.5917 13.9201 28.1108 13.5937 27.844Z" fill="#F88500"/>
<path d="M26.6158 19.2368C26.1941 19.2368 25.8524 19.5784 25.8524 20.0001C25.8524 23.2272 23.2271 25.8525 20 25.8525C16.7729 25.8525 14.1476 23.2272 14.1476 20.0001C14.1476 16.773 16.7729 14.1477 20 14.1477C20.4217 14.1477 20.7633 13.806 20.7633 13.3843C20.7633 12.9627 20.4217 12.621 20 12.621C15.9311 12.621 12.6208 15.9312 12.6208 20.0001C12.6208 24.069 15.9311 27.3793 20 27.3793C24.0689 27.3793 27.3791 24.069 27.3791 20.0001C27.3791 19.5784 27.0374 19.2368 26.6158 19.2368Z" fill="#F88500"/>
<path d="M20 16.8959C18.2883 16.8959 16.8957 18.2885 16.8957 20.0002C16.8957 21.7118 18.2883 23.1045 20 23.1045C21.7116 23.1045 23.1043 21.7118 23.1043 20.0002C23.1043 18.2885 21.7116 16.8959 20 16.8959ZM20 21.5777C19.1301 21.5777 18.4224 20.8701 18.4224 20.0002C18.4224 19.1302 19.1301 18.4226 20 18.4226C20.8699 18.4226 21.5776 19.1302 21.5776 20.0002C21.5776 20.8701 20.8699 21.5777 20 21.5777Z" fill="#F88500"/>
</g>
<defs>
<clipPath id="clip0_13_123">
<rect width="40" height="40" fill="white"/>
</clipPath>
</defs>
</svg>
